<svg id="pixie-logo" data-name="Layer 1" xmlns="http://www.w3.org/2000/svg" viewBox="0 0 41 9">
  <g>
    <polygon points="40 4 40 1 39 1 39 0 37 0 37 1 38 1 38 4 39 4 39 5 38 5 38 8 37 8 37 9 39 9 39 8 40 8 40 5 41 5 41 4 40 4"/>
    <polygon points="36 4 36 1 35 1 35 0 33 0 33 1 34 1 34 4 35 4 35 5 34 5 34 8 33 8 33 9 35 9 35 8 36 8 36 5 37 5 37 4 36 4"/>
  </g>
  <g>
    <polygon points="32 3 32 2 27 2 27 7 32 7 32 6 29 6 29 5 31 5 31 4 29 4 29 3 32 3"/>
    <g>
      <rect x="24" width="2" height="1"/>
      <rect x="24" y="2" width="2" height="5"/>
    </g>
    <polygon points="23 4 23 2 21 2 21 3 20 3 20 2 18 2 18 4 19 4 19 5 18 5 18 7 20 7 20 6 21 6 21 7 23 7 23 5 22 5 22 4 23 4"/>
    <g>
      <rect x="15" width="2" height="1"/>
      <rect x="15" y="2" width="2" height="5"/>
    </g>
    <path d="M9,2V7h2V6h3V2H9Zm3,3H11V3h1V5Z"/>
  </g>
  <g>
    <polygon points="7 4 7 1 8 1 8 0 6 0 6 1 5 1 5 4 4 4 4 5 5 5 5 8 6 8 6 9 8 9 8 8 7 8 7 5 6 5 6 4 7 4"/>
    <polygon points="3 5 2 5 2 4 3 4 3 1 4 1 4 0 2 0 2 1 1 1 1 4 0 4 0 5 1 5 1 8 2 8 2 9 4 9 4 8 3 8 3 5"/>
  </g>
</svg>
